<svg width="80" height="80" viewBox="0 0 80 80" fill="none" xmlns="http://www.w3.org/2000/svg">
<path d="M80 40C80 62.0914 62.0914 80 40 80C17.9086 80 0 62.0914 0 40C0 17.9086 17.9086 0 40 0C62.0914 0 80 17.9086 80 40Z" fill="#CECECE"/>
<path fill-rule="evenodd" clip-rule="evenodd" d="M49.8242 19.516C51.5903 22.7671 52.481 26.1302 51.2447 29.7658C51.3062 29.3328 51.3868 28.8998 51.4252 28.4668C51.5417 26.7278 51.2868 24.9842 50.6765 23.3457C50.2542 22.1176 49.7167 20.9307 49.2253 19.725C49.2253 19.6989 49.1946 19.6802 49.1485 19.6168C48.9719 19.893 48.7876 20.1468 48.6379 20.4118C48.254 21.1136 47.8201 21.8041 47.4861 22.5357C46.8142 24.0922 47.0177 25.6412 47.7548 27.1268C48.1887 27.9928 48.7185 28.8139 49.1907 29.6613C49.4864 30.195 49.7705 30.7362 50.0277 31.2887C50.5127 32.2423 50.7487 33.2973 50.7149 34.3606C50.9952 34.0583 51.2831 33.7597 51.5519 33.4499C52.8384 32.0215 53.8082 30.3506 54.4006 28.5415C54.9486 26.8934 54.8747 25.1094 54.1922 23.5094C53.5097 21.9095 52.2633 20.5983 50.6765 19.8109C50.4193 19.6802 50.1429 19.5795 49.878 19.4637L49.8242 19.516Z" fill="#050D0C"/>
<path fill-rule="evenodd" clip-rule="evenodd" d="M38.9016 21.0129C39.3815 21.2816 39.7924 21.5355 40.2223 21.7594C41.2115 22.2896 42.2981 22.6257 43.4205 22.7486C45.509 22.9389 46.8489 22.2185 47.8087 20.4082C47.9354 20.1619 48.0544 19.9118 48.1696 19.6617C48.2157 19.5646 48.2387 19.4564 48.304 19.266C46.5418 20.83 44.6183 21.7072 42.238 21.1697C44.6183 21.36 46.4228 20.2664 48.0621 18.7621C46.7645 17.6125 45.5244 17.4259 44.0808 18.2097C43.5826 18.4916 43.1053 18.8071 42.6526 19.1541C41.7503 19.8858 40.7223 20.457 39.6157 20.8412C39.4046 20.9046 39.1973 20.942 38.9016 21.0129Z" fill="#050D0C"/>
<path fill-rule="evenodd" clip-rule="evenodd" d="M37.1662 59.5595C32.1483 57.0176 28.1132 53.6097 26.4546 48.1116C26.7579 48.6976 27.0344 49.2948 27.3722 49.8584C28.7408 52.096 30.5708 54.0341 32.7472 55.5507C34.3443 56.7115 36.0451 57.7305 37.6998 58.813C37.7601 58.8413 37.8231 58.8638 37.888 58.8802C37.8649 58.3912 37.888 57.9284 37.8189 57.4767C37.6883 56.2897 37.6154 55.0878 37.3658 53.9233C36.8322 51.4485 35.2312 49.7091 33.0236 48.496C31.7336 47.7831 30.363 47.212 29.0385 46.5551C28.2092 46.1408 27.3837 45.7078 26.5852 45.2412C25.1522 44.4692 23.9386 43.3637 23.0531 42.0237C22.9724 42.6321 22.8803 43.233 22.8189 43.8377C22.4789 46.66 22.7402 49.5201 23.5867 52.2399C24.3562 54.7228 26.0105 56.858 28.2529 58.2624C30.4952 59.6667 33.1789 60.2484 35.8224 59.9029C36.2524 59.8544 36.6824 59.7499 37.1086 59.6715L37.1662 59.5595Z" fill="#050D0C"/>
<path fill-rule="evenodd" clip-rule="evenodd" d="M58.0595 52.5571C58.1401 54.2032 57.6448 56.0322 56.9499 57.8238C56.8267 58.1288 56.6804 58.4245 56.5122 58.7085C56.4777 58.7682 56.3548 58.7831 56.2742 58.8204C56.2452 58.7633 56.2282 58.7011 56.2243 58.6375C56.4393 56.607 55.2568 55.2297 53.867 53.9867C52.2889 52.6475 50.5215 51.5351 48.6187 50.6833C43.2642 48.1252 37.9085 45.5609 32.5514 42.9904C31.4303 42.4566 30.3131 41.9191 29.2036 41.3592C25.5831 39.534 23.5407 36.589 22.9149 32.722C22.1892 28.2428 23.7134 24.3273 26.4547 20.7776C26.534 20.6707 26.6199 20.5685 26.7119 20.4715L27.7293 19.4973C27.568 19.8706 27.3914 20.2438 27.2379 20.647C26.9542 21.3864 26.824 22.1733 26.855 22.9619C26.886 23.7506 27.0774 24.5255 27.4183 25.2418C28.3359 27.3918 29.8946 29.0491 31.7413 30.4675C33.1258 31.5173 34.6306 32.4078 36.2256 33.1214C40.2235 34.9503 44.2176 36.7843 48.2079 38.6232C51.0579 39.8544 53.5303 41.7836 55.3835 44.2222C57.2007 46.6355 58.142 49.5673 58.0595 52.5571Z" fill="#050D0C"/>
</svg>
