<svg width="1709" height="2100" viewBox="0 0 1709 2100" fill="none" xmlns="http://www.w3.org/2000/svg">
<path fill-rule="evenodd" clip-rule="evenodd" d="M1310.95 88.492C1396.23 249.958 1439.23 416.986 1379.54 597.546C1382.51 576.042 1386.4 554.538 1388.26 533.034C1393.88 446.667 1381.57 360.071 1352.11 278.692C1331.71 217.702 1305.76 158.751 1282.03 98.8733C1282.03 97.5756 1280.55 96.6488 1278.32 93.4973C1269.8 107.215 1260.9 119.821 1253.67 132.983C1235.13 167.835 1214.18 202.13 1198.05 238.465C1165.61 315.768 1175.44 392.701 1211.03 466.482C1231.98 509.491 1257.56 550.274 1280.36 592.356C1294.64 618.865 1308.36 645.745 1320.78 673.181C1344.19 720.542 1355.59 772.94 1353.96 825.749C1367.49 810.733 1381.4 795.903 1394.37 780.517C1456.49 709.577 1503.32 626.591 1531.92 536.741C1558.38 454.888 1554.81 366.287 1521.86 286.826C1488.91 207.366 1428.73 142.243 1352.11 103.137C1339.69 96.6488 1326.34 91.6435 1313.55 85.8967L1310.95 88.492Z" fill="#AAE6B9"/>
<path fill-rule="evenodd" clip-rule="evenodd" d="M783.539 162.828C806.712 176.175 826.547 188.781 847.31 199.904C895.07 226.234 947.537 242.926 1001.73 249.029C1102.58 258.484 1167.28 222.705 1213.62 132.796C1219.74 120.561 1225.49 108.14 1231.05 95.7199C1233.27 90.9 1234.38 85.524 1237.54 76.0696C1152.45 153.744 1059.57 197.308 944.635 170.614C1059.57 180.068 1146.7 125.751 1225.86 51.0433C1163.2 -6.05386 1103.32 -15.3229 1033.62 23.607C1009.56 37.6066 986.516 53.2789 964.656 70.5082C921.09 106.851 871.449 135.217 818.02 154.3C807.824 157.452 797.813 159.305 783.539 162.828Z" fill="#AAE6B9"/>
<path fill-rule="evenodd" clip-rule="evenodd" d="M699.746 2077.25C457.454 1951.01 262.619 1781.75 182.534 1508.69C197.179 1537.79 210.527 1567.45 226.84 1595.45C292.922 1706.58 381.286 1802.83 486.373 1878.15C563.491 1935.81 645.614 1986.41 725.513 2040.17C728.425 2041.58 731.467 2042.7 734.597 2043.51C733.485 2019.23 734.597 1996.24 731.26 1973.81C724.957 1914.86 721.435 1855.16 709.385 1797.33C683.617 1674.42 606.314 1588.03 499.72 1527.78C437.432 1492.38 371.251 1464.01 307.295 1431.39C267.253 1410.81 227.397 1389.3 188.837 1366.13C119.648 1327.79 61.0481 1272.88 18.2875 1206.33C14.3946 1236.55 9.94541 1266.4 6.97933 1296.43C-9.43806 1436.6 3.18269 1578.64 44.0554 1713.72C81.2106 1837.04 161.089 1943.08 269.362 2012.83C377.635 2082.58 507.217 2111.46 634.862 2094.31C655.625 2091.9 676.387 2086.7 696.965 2082.81L699.746 2077.25Z" fill="#AAE6B9"/>
<path fill-rule="evenodd" clip-rule="evenodd" d="M1708.58 1729.48C1712.48 1811.23 1688.56 1902.06 1655.01 1991.05C1649.06 2006.19 1641.99 2020.88 1633.87 2034.98C1632.21 2037.95 1626.27 2038.69 1622.38 2040.54C1620.98 2037.71 1620.16 2034.62 1619.97 2031.46C1630.35 1930.61 1573.26 1862.21 1506.15 1800.48C1429.95 1733.96 1344.61 1678.72 1252.73 1636.41C994.189 1509.37 735.584 1382.01 476.916 1254.35C422.785 1227.84 368.84 1201.14 315.265 1173.33C140.451 1082.68 41.8289 936.418 11.6119 744.364C-23.4249 521.908 50.171 327.444 182.533 151.148C186.366 145.838 190.514 140.761 194.953 135.946L244.079 87.5623C236.293 106.1 227.765 124.638 220.35 144.659C206.651 181.386 200.368 220.463 201.864 259.633C203.359 298.803 212.604 337.287 229.063 372.862C273.369 479.641 348.633 561.95 437.801 632.395C504.651 684.533 577.309 728.763 654.325 764.2C847.368 855.036 1040.23 946.12 1232.9 1037.45C1370.51 1098.59 1489.89 1194.41 1579.37 1315.52C1667.12 1435.38 1712.57 1580.99 1708.58 1729.48V1729.48Z" fill="#AAE6B9"/>
</svg>
